<?xml version="1.0" standalone="no"?>
<!DOCTYPE svg PUBLIC "-//W3C//DTD SVG 20010904//EN"
 "http://www.w3.org/TR/2001/REC-SVG-20010904/DTD/svg10.dtd">
<svg version="1.0" xmlns="http://www.w3.org/2000/svg"
 width="300.000000pt" height="200.000000pt" viewBox="0 0 300.000000 200.000000"
 preserveAspectRatio="xMidYMid meet">
<metadata>
Created by potrace 1.10, written by Peter Selinger 2001-2011
</metadata>
<g transform="translate(0.000000,200.000000) scale(0.100000,-0.100000)"
fill="#000000" stroke="none">
<path d="M1720 1793 c0 -17 16 -18 210 -15 176 2 210 5 210 17 0 13 -32 15
-210 15 -193 0 -210 -1 -210 -17z"/>
<path d="M1375 1748 c-4 -10 1 -24 13 -36 11 -11 24 -28 30 -37 6 -11 16 -16
26 -12 14 6 13 10 -9 35 -14 16 -32 37 -40 48 -12 17 -14 17 -20 2z"/>
<path d="M1770 1730 c0 -11 7 -20 15 -20 8 0 15 -7 15 -15 0 -8 9 -15 20 -15
13 0 20 7 20 20 0 11 -7 20 -15 20 -8 0 -15 7 -15 15 0 8 -9 15 -20 15 -13 0
-20 -7 -20 -20z"/>
<path d="M1870 1729 c0 -25 33 -22 38 4 2 12 -3 17 -17 17 -15 0 -21 -6 -21
-21z"/>
<path d="M2050 1730 c0 -24 6 -25 26 -6 19 20 18 26 -6 26 -13 0 -20 -7 -20
-20z"/>
<path d="M2083 1705 c-18 -20 -16 -25 7 -25 13 0 20 7 20 20 0 23 -10 25 -27
5z"/>
<path d="M1611 1533 c-5 -21 -12 -56 -15 -78 -3 -22 3 -8 13 30 21 80 22 81
109 37 54 -26 167 -136 157 -152 -3 -5 -1 -11 5 -15 5 -3 10 3 10 13 0 32
-108 135 -179 170 -35 18 -70 32 -77 32 -7 0 -18 -17 -23 -37z"/>
<path d="M923 1548 c-28 -13 -47 -63 -67 -168 -9 -46 -24 -92 -33 -102 -12
-14 -15 -32 -11 -88 5 -62 3 -72 -13 -81 -15 -8 -17 -6 -12 7 5 13 2 15 -15
10 -18 -6 -21 -4 -15 11 6 17 5 17 -15 -1 -21 -18 -23 -18 -40 -3 -23 21 -36
22 -28 2 4 -11 -1 -15 -19 -15 -14 0 -25 -4 -25 -9 0 -5 -10 -11 -21 -14 -14
-4 -20 -11 -16 -21 3 -8 -1 -17 -8 -20 -9 -3 -13 -16 -10 -35 2 -17 -1 -34 -7
-37 -7 -5 -6 -11 4 -18 9 -6 17 -20 19 -31 2 -10 19 -25 37 -32 31 -13 32 -12
32 11 0 14 -4 28 -10 31 -16 10 -12 35 6 35 8 0 20 14 26 31 7 20 15 28 25 25
8 -3 23 -1 34 4 16 9 19 7 19 -10 0 -11 4 -20 10 -20 5 0 7 8 3 18 -5 13 -3
14 7 6 8 -8 11 -32 8 -68 -3 -58 5 -74 16 -30 5 20 11 24 27 19 18 -6 19 -5
10 14 -10 17 -9 21 4 21 8 0 15 5 15 10 0 6 -7 10 -15 10 -8 0 -15 7 -15 15 0
8 5 15 11 15 15 0 7 45 -8 46 -7 1 -15 2 -18 3 -3 0 4 11 15 24 18 18 21 30
15 70 -3 27 -1 65 6 90 l12 42 9 -40 c5 -22 11 -52 15 -67 4 -23 11 -28 35
-28 30 0 30 1 24 41 -6 37 -5 40 13 34 11 -3 25 1 34 9 19 20 41 -1 27 -24
-14 -22 -12 -47 6 -64 19 -20 38 -11 31 15 -3 11 -2 19 1 19 4 0 15 20 26 45
10 25 28 51 40 57 11 6 37 30 57 52 37 42 112 88 161 100 24 5 29 2 43 -28 24
-50 17 -88 -20 -106 -36 -18 -53 -59 -38 -92 9 -22 12 -20 42 34 18 32 38 55
44 52 16 -6 14 85 -2 115 -6 11 -11 31 -11 46 0 23 -3 25 -27 19 -92 -20 -202
-93 -243 -160 -42 -67 -70 -37 -75 81 -2 28 -3 58 -4 68 0 10 -12 29 -26 42
-26 27 -64 31 -102 13z m103 -64 c-3 -8 -1 -14 4 -14 6 0 10 -22 10 -50 0 -36
-5 -55 -19 -69 -11 -11 -21 -32 -23 -48 -3 -24 -8 -28 -38 -31 l-35 -3 -2 91
c-2 91 -2 92 26 103 17 7 26 18 24 27 -3 10 -1 9 7 -2 15 -24 30 -23 30 3 0
12 4 17 11 14 6 -4 8 -13 5 -21z m-332 -399 c-7 -18 -3 -19 30 -4 20 9 29 9
41 -1 18 -15 20 -35 3 -23 -7 4 -31 8 -54 8 -35 1 -43 -3 -57 -27 -18 -31 -32
-36 -41 -13 -3 9 3 19 15 26 11 6 18 13 15 17 -5 4 19 19 51 31 1 1 0 -6 -3
-14z"/>
<path d="M2122 1543 c-28 -24 -55 -109 -46 -147 7 -37 31 -66 53 -66 11 0 10
4 -6 15 -31 21 -42 94 -17 112 10 7 12 13 6 13 -7 0 -12 7 -12 17 0 14 2 14
20 -2 11 -10 20 -15 20 -12 0 4 15 -2 32 -11 24 -14 33 -26 35 -48 4 -53 13
-76 28 -70 8 3 17 1 19 -3 8 -13 58 -10 72 3 15 16 2 102 -19 123 -21 21 -40
8 -27 -18 6 -11 8 -24 5 -29 -9 -15 -27 -1 -21 15 8 23 -22 71 -62 99 -45 31
-53 32 -80 9z"/>
<path d="M1493 1410 c-68 -28 -48 -133 26 -133 24 0 30 -4 27 -16 -23 -76 -37
-154 -30 -161 5 -4 39 -15 76 -23 l68 -15 -6 24 c-4 15 0 34 11 50 13 21 23
25 53 22 29 -2 40 -9 50 -32 13 -25 12 -31 -7 -56 l-20 -28 70 -17 c38 -10 72
-15 75 -13 2 3 -23 11 -56 18 -46 10 -60 17 -55 27 16 43 15 60 -5 86 -40 51
-130 25 -130 -38 0 -14 -3 -25 -6 -25 -15 0 -100 24 -107 30 -5 4 1 43 12 88
26 99 26 95 -3 88 -16 -4 -32 1 -50 15 -34 27 -32 64 6 92 24 18 28 18 57 4
19 -10 33 -12 37 -6 3 6 3 13 0 16 -3 4 -6 1 -6 -5 0 -7 -9 -6 -27 4 -32 16
-31 16 -60 4z"/>
<path d="M1804 1396 c-4 -12 1 -25 16 -39 18 -17 21 -18 17 -5 -3 9 -1 18 4
20 6 2 1 12 -10 22 -19 17 -21 18 -27 2z"/>
<path d="M1882 1322 l-23 -18 46 -69 c64 -95 74 -105 106 -105 28 0 29 -1 22
-47 -6 -45 -5 -47 11 -34 12 10 17 25 14 47 -4 31 -2 32 41 38 80 11 114 8
107 -10 -3 -9 -6 -28 -7 -42 0 -24 -1 -25 -9 -7 -11 29 -4 -74 10 -124 13 -50
9 -131 -6 -131 -7 0 -42 11 -78 25 -37 14 -71 25 -76 25 -5 0 -6 -15 -3 -33 4
-28 1 -37 -22 -55 -15 -12 -38 -22 -50 -22 -25 0 -55 -30 -80 -78 -14 -29 -20
-33 -43 -28 -48 11 -82 28 -76 37 3 5 -2 9 -10 9 -18 0 -21 -16 -6 -25 6 -3
10 -13 10 -21 0 -8 -4 -13 -9 -10 -30 19 -118 -86 -125 -148 l-3 -31 -64 0
-64 0 -2 45 c-2 60 5 80 26 80 25 0 69 43 86 84 17 40 34 54 45 36 4 -7 15
-10 23 -7 9 3 17 1 19 -5 2 -6 17 -4 42 6 21 9 41 14 46 11 11 -7 47 36 65 79
23 56 12 54 -14 -2 -19 -41 -29 -50 -69 -64 -40 -15 -48 -15 -55 -3 -4 8 -14
12 -23 8 -8 -3 -23 2 -34 12 -25 22 -45 9 -55 -38 -6 -29 -7 -30 -15 -11 -15
38 -90 75 -90 45 0 -5 9 -7 19 -4 11 3 28 -4 40 -16 50 -50 4 -128 -60 -104
l-29 11 0 -99 0 -99 94 0 93 0 7 60 c4 33 10 60 13 60 4 0 42 -15 86 -32 l79
-33 37 41 c35 40 37 41 70 30 30 -11 48 -31 50 -58 1 -4 -20 -5 -46 -1 -55 6
-78 -11 -89 -64 -5 -24 0 -37 25 -65 l30 -35 -37 -12 c-58 -19 -74 -36 -75
-76 -1 -24 6 -42 20 -57 21 -21 24 -21 137 -9 64 7 120 10 126 6 6 -4 2 -21
-10 -46 -11 -21 -17 -39 -12 -39 4 0 28 20 52 45 48 49 69 55 96 28 17 -17 17
-16 11 22 -4 22 -7 51 -7 65 0 18 -3 21 -11 13 -6 -6 -11 -24 -11 -38 0 -24
-3 -26 -29 -21 -20 4 -29 1 -29 -8 0 -8 -10 -11 -30 -8 -42 6 -46 19 -10 37
19 10 30 23 30 37 0 20 -1 19 -20 -5 -26 -32 -64 -44 -167 -53 -75 -6 -82 -5
-92 14 -9 18 -7 24 15 39 14 10 39 30 55 44 l28 25 -20 33 c-11 18 -19 45 -17
60 3 24 7 26 58 28 43 1 69 -5 118 -28 34 -16 66 -29 70 -29 4 0 23 -13 41
-28 32 -26 33 -29 17 -45 -10 -9 -28 -17 -42 -17 -13 0 -24 -4 -24 -10 0 -18
67 -11 94 11 l26 20 0 -34 c0 -20 3 -43 7 -53 4 -12 2 -15 -8 -12 -8 3 -13 12
-11 21 1 8 -2 18 -8 22 -6 4 -10 -12 -10 -44 l0 -51 38 0 38 0 -1 45 c0 25 -4
45 -9 45 -4 0 -6 9 -3 20 3 11 1 18 -3 15 -5 -3 -11 8 -15 24 -9 40 -73 83
-183 121 -51 18 -92 36 -92 39 0 4 19 27 41 51 23 25 50 64 60 88 20 47 25 66
9 42 -8 -12 -12 -11 -32 7 -38 34 -61 36 -88 8 -13 -14 -32 -25 -42 -25 -29 0
-21 36 13 62 18 13 49 40 69 61 37 37 39 38 79 27 44 -12 63 -35 55 -67 -8
-28 22 -122 46 -148 12 -13 26 -49 32 -84 11 -57 15 -65 55 -92 24 -17 48 -27
53 -24 5 3 19 1 31 -5 18 -10 20 -17 14 -56 -3 -24 -3 -44 2 -44 4 1 21 29 38
63 16 34 30 64 32 67 2 3 -12 15 -30 25 -18 11 -74 54 -123 95 -85 70 -92 79
-108 133 -19 67 -13 120 15 148 24 24 25 79 2 137 -16 42 -16 49 6 164 23 116
23 120 6 159 -17 38 -20 39 -67 39 -35 0 -48 -4 -48 -14 0 -24 -43 -64 -76
-71 -29 -6 -36 -1 -80 49 -27 31 -51 56 -54 56 -3 0 -15 -8 -28 -18z m120
-102 c4 0 9 -12 9 -27 2 -24 2 -25 6 -5 3 12 12 22 21 22 9 0 35 9 57 19 22
11 51 24 65 30 25 10 25 10 -2 5 -29 -6 -37 6 -15 23 43 33 81 -9 75 -83 l-3
-39 -89 -14 c-68 -11 -91 -11 -94 -3 -2 7 -12 12 -21 12 -10 0 -25 8 -34 18
-30 32 -76 106 -71 113 2 5 23 -10 46 -32 23 -21 45 -39 50 -39z m80 -567 c7
-9 1 -26 -24 -60 -39 -54 -63 -64 -84 -34 -23 32 -90 29 -116 -4 -11 -14 -28
-25 -39 -25 -27 0 -24 12 9 34 l29 19 -21 21 c-21 21 -21 21 -1 24 11 2 25 8
30 13 6 4 29 4 50 -1 60 -14 64 -13 82 25 l16 34 29 -17 c16 -9 34 -23 40 -29z
m-299 -43 c26 -7 47 -16 47 -21 0 -18 -23 -19 -80 -3 -47 13 -58 19 -49 30 6
7 16 11 22 9 7 -2 33 -9 60 -15z m536 -120 c52 -50 37 -67 -24 -27 -34 22 -48
57 -21 57 7 0 27 -14 45 -30z"/>
<path d="M1415 1214 c-12 -10 -31 -13 -49 -10 -24 5 -27 4 -16 -9 7 -8 25 -15
41 -15 31 0 39 -17 42 -81 2 -27 -2 -33 -28 -41 -64 -20 -76 -30 -75 -63 3
-46 1 -52 -16 -59 -25 -10 -51 11 -58 46 -5 26 -9 30 -16 18 -16 -25 -11 -55
13 -77 34 -32 59 -33 90 -1 31 32 33 45 12 75 -17 25 -17 25 69 37 21 3 40 7
42 9 5 5 -18 170 -25 179 -3 4 -15 0 -26 -8z"/>
<path d="M2513 1192 c-26 -4 -29 -14 -10 -30 10 -8 16 -6 26 9 15 24 13 26
-16 21z"/>
<path d="M2330 1108 c-36 -28 -60 -49 -54 -47 21 8 133 84 133 92 2 14 -15 5
-79 -45z"/>
<path d="M1037 1142 c-5 -7 7 -15 34 -23 l41 -13 -28 -24 c-16 -13 -38 -27
-49 -32 -17 -7 -17 -9 -2 -9 10 -1 17 -9 17 -22 0 -11 5 -29 11 -41 9 -17 6
-24 -23 -49 -32 -28 -36 -29 -112 -26 -59 3 -82 8 -91 20 -17 23 -20 21 -24
-10 -10 -79 -12 -75 54 -75 51 0 71 6 137 41 42 23 79 49 82 58 5 12 9 14 18
5 7 -7 16 -12 22 -12 6 0 5 5 -2 12 -7 7 -12 20 -12 31 0 14 -5 17 -19 12 -17
-5 -21 0 -27 30 -3 20 -4 39 0 42 4 4 43 6 89 5 45 -1 89 3 97 8 11 7 -4 10
-47 10 l-63 0 0 31 c0 32 0 32 -44 26 -30 -4 -46 -3 -48 5 -3 9 -6 9 -11 0z"/>
<path d="M1924 1085 c-5 -29 -6 -51 -2 -49 8 5 23 93 16 99 -2 2 -8 -20 -14
-50z"/>
<path d="M2380 1029 c-81 -57 -136 -103 -100 -84 24 14 190 136 190 141 0 7
-4 5 -90 -57z"/>
<path d="M257 1062 c-15 -16 -15 -21 -4 -31 19 -15 42 11 30 34 -8 14 -11 14
-26 -3z"/>
<path d="M286 1021 c-3 -4 11 -24 32 -43 60 -55 70 -56 24 0 -47 56 -48 57
-56 43z"/>
<path d="M2016 1015 c-12 -12 -20 -13 -40 -4 -30 14 -72 5 -80 -18 -10 -25 14
-34 46 -17 34 18 48 11 48 -22 0 -14 5 -35 11 -46 9 -17 13 -18 20 -7 5 8 9
24 9 37 0 21 8 26 40 23 12 -1 12 1 -2 12 -12 10 -14 17 -7 24 13 13 3 33 -16
33 -7 0 -20 -7 -29 -15z"/>
<path d="M1134 1005 c-19 -14 -19 -14 1 -15 38 0 95 13 95 21 0 15 -75 10 -96
-6z"/>
<path d="M1614 985 c-11 -16 -14 -36 -11 -55 l6 -29 -77 -3 -77 -3 6 -90 5
-90 2 88 2 87 80 0 c77 0 80 1 70 19 -24 46 2 91 53 91 33 0 61 -39 52 -72 -5
-18 -4 -20 4 -8 16 23 13 44 -9 68 -30 32 -84 30 -106 -3z"/>
<path d="M1885 898 c9 -76 18 -96 52 -109 20 -7 30 -6 41 5 14 13 13 14 -5 10
-29 -8 -66 47 -69 100 -2 55 -2 56 -15 56 -8 0 -9 -19 -4 -62z"/>
<path d="M2580 933 c-14 -3 -29 -9 -35 -15 -7 -7 -3 -9 11 -6 19 5 23 0 28
-33 3 -22 10 -39 15 -39 4 0 5 18 1 40 -5 30 -4 40 6 40 7 0 16 5 19 10 6 10
-1 11 -45 3z"/>
<path d="M1767 893 c18 -2 50 -2 70 0 21 2 7 4 -32 4 -38 0 -55 -2 -38 -4z"/>
<path d="M632 848 c-27 -32 -125 -263 -149 -349 -13 -48 -14 -60 -2 -85 19
-40 58 -57 96 -43 17 5 59 9 94 7 l64 -3 -70 -19 c-75 -20 -171 -61 -181 -77
-10 -16 34 -97 56 -104 26 -8 40 2 16 11 -24 9 -21 60 4 67 13 3 20 0 20 -9 0
-18 -2 -18 110 11 112 29 121 30 114 10 -4 -9 0 -15 10 -15 12 0 16 -10 16
-42 l0 -43 493 -2 c293 -1 480 2 463 7 -15 5 -48 7 -72 6 l-44 -4 0 53 c0 59
-19 87 -48 68 -26 -16 -27 -43 -3 -43 16 0 21 -6 21 -25 0 -18 -5 -25 -20 -25
-11 0 -20 -7 -20 -15 0 -13 -36 -15 -268 -15 l-268 0 -33 34 c-27 28 -30 35
-19 47 8 8 47 72 88 144 l73 130 -1 75 c-1 91 -3 104 -24 127 -21 24 -58 99
-58 118 0 8 -2 15 -5 15 -2 0 -40 -27 -82 -60 -48 -37 -88 -60 -103 -60 -40 0
-100 20 -100 33 0 8 -3 8 -9 -1 -6 -10 -10 -7 -15 14 -5 18 -3 30 6 35 10 7 9
9 -3 9 -9 0 -19 7 -23 15 -3 8 -13 15 -23 16 -17 0 -16 1 1 8 12 5 1 7 -30 8
-42 0 -52 -4 -72 -29z m88 1 c0 -6 7 -8 17 -5 10 4 14 4 11 0 -4 -3 -1 -19 7
-35 20 -38 19 -62 -5 -103 -12 -23 -16 -38 -9 -42 15 -9 38 26 39 59 0 20 5
27 19 27 15 0 22 -12 32 -55 10 -44 16 -55 32 -55 24 0 57 -27 57 -47 0 -16
-12 -17 -27 -2 -14 14 -193 -31 -268 -67 -61 -29 -110 -40 -119 -26 -4 6 3 27
14 47 11 19 20 43 20 53 0 9 9 35 19 57 11 22 27 56 36 75 21 45 14 13 -18
-75 l-25 -69 24 -23 c32 -30 38 -29 19 1 -15 22 -14 31 10 124 14 55 22 109
18 119 -6 16 -5 16 10 5 9 -8 26 -12 39 -9 20 4 20 4 -5 6 -24 1 -26 3 -17 20
9 17 19 22 63 30 4 0 7 -4 7 -10z m388 -129 c22 -37 27 -57 27 -115 0 -68 -2
-74 -64 -183 -49 -87 -72 -119 -103 -138 -21 -14 -44 -22 -50 -18 -7 4 -8 3
-4 -4 4 -7 2 -12 -5 -12 -6 0 -17 -7 -24 -17 -13 -18 -35 -10 -35 13 0 8 11
14 28 15 l27 1 -29 8 c-15 5 -37 17 -47 26 -10 9 -19 13 -19 8 0 -5 -4 -3 -8
3 -6 10 -27 8 -91 -7 -45 -11 -89 -20 -97 -20 -26 0 -5 19 46 41 27 11 56 29
65 39 16 17 15 19 -9 35 -16 10 -33 14 -47 10 -12 -4 -19 -3 -16 2 3 5 -22 7
-58 5 -56 -4 -64 -2 -74 17 -10 18 -9 22 11 30 13 4 48 19 78 31 82 34 219 70
273 73 l47 2 0 -85 c1 -59 5 -91 15 -104 14 -18 15 -12 15 59 0 43 7 116 16
163 8 46 13 86 10 89 -3 3 -13 -8 -23 -26 -10 -17 -20 -31 -23 -31 -3 0 -20
14 -39 30 -27 25 -31 33 -21 45 7 8 23 15 37 15 25 0 70 25 90 50 7 8 13 11
13 7 0 -5 8 -1 17 8 19 20 23 16 71 -65z m-114 -458 c10 -16 -6 -51 -20 -45
-29 11 -13 -9 19 -22 l32 -14 -33 -1 c-38 0 -102 24 -102 39 0 6 18 11 40 11
33 0 40 3 40 20 0 20 14 27 24 12z"/>
<path d="M690 711 c-6 -39 -16 -73 -21 -77 -5 -3 -9 -11 -9 -17 0 -7 4 -6 10
3 6 10 28 15 74 15 35 0 68 4 73 9 4 5 -22 7 -59 4 -38 -2 -68 -1 -68 2 0 4 5
32 11 64 6 32 8 60 6 63 -3 2 -10 -27 -17 -66z"/>
<path d="M1000 678 c0 -10 9 -40 20 -68 18 -45 18 -54 6 -78 -17 -34 -58 -164
-52 -169 9 -10 45 52 71 122 26 71 27 79 14 118 -16 49 -58 102 -59 75z"/>
<path d="M1229 631 c50 -64 54 -74 66 -163 l6 -48 67 2 67 2 -62 3 -62 4 -6
47 c-11 81 -25 111 -76 165 l-50 52 50 -64z"/>
<path d="M2492 623 c196 -3 217 -5 221 -21 3 -12 5 -11 6 6 l1 22 -222 -2
-223 -3 217 -2z"/>
<path d="M279 545 c29 -71 45 -87 29 -27 -13 47 -36 92 -47 92 -5 0 3 -29 18
-65z"/>
<path d="M2668 543 c-25 -6 -23 -43 2 -43 15 0 20 7 20 25 0 14 -1 24 -2 24
-2 -1 -11 -3 -20 -6z"/>
<path d="M2420 520 c0 -13 7 -20 20 -20 13 0 20 7 20 20 0 13 -7 20 -20 20
-13 0 -20 -7 -20 -20z"/>
<path d="M2480 520 c0 -13 7 -20 20 -20 13 0 20 7 20 20 0 13 -7 20 -20 20
-13 0 -20 -7 -20 -20z"/>
<path d="M2530 520 c0 -13 7 -20 20 -20 13 0 20 7 20 20 0 13 -7 20 -20 20
-13 0 -20 -7 -20 -20z"/>
<path d="M2590 520 c0 -13 7 -20 20 -20 13 0 20 7 20 20 0 13 -7 20 -20 20
-13 0 -20 -7 -20 -20z"/>
<path d="M234 493 c21 -60 55 -123 66 -123 6 0 -8 35 -31 78 -49 92 -54 99
-35 45z"/>
<path d="M2086 481 c-5 -7 4 -11 26 -11 41 -1 103 -23 129 -46 19 -17 26 -10
11 12 -22 33 -152 68 -166 45z"/>
<path d="M1730 470 c0 -5 4 -10 9 -10 6 0 12 -15 14 -32 3 -29 4 -27 5 10 2
31 -2 42 -13 42 -8 0 -15 -4 -15 -10z"/>
<path d="M1692 461 c-12 -7 -11 -14 3 -41 9 -17 19 -29 23 -26 3 4 0 12 -6 18
-16 16 -15 45 1 51 6 3 8 6 2 6 -5 0 -16 -3 -23 -8z"/>
<path d="M1317 384 c-4 -4 -7 -16 -7 -26 0 -17 10 -18 173 -16 164 3 172 4
172 23 0 19 -8 20 -166 23 -91 1 -168 -1 -172 -4z"/>
<path d="M1685 350 c3 -5 12 -7 20 -3 9 3 15 -1 15 -11 0 -9 5 -16 10 -16 6 0
10 5 10 11 0 6 7 9 15 5 8 -3 15 -1 15 4 0 12 53 8 62 -5 4 -6 8 -2 8 8 0 15
-10 17 -81 17 -48 0 -78 -4 -74 -10z"/>
<path d="M1405 290 c34 -38 111 -38 156 0 l24 19 -99 1 c-98 0 -99 0 -81 -20z"/>
<path d="M1700 265 c0 -21 4 -25 28 -24 23 2 24 2 5 6 -35 7 -28 31 10 36 31
4 31 4 -5 5 -34 2 -38 0 -38 -23z"/>
<path d="M428 189 c-2 -6 -22 -15 -43 -19 -31 -6 -21 -8 45 -7 47 0 72 2 55 4
-16 2 -35 11 -41 19 -8 11 -13 11 -16 3z"/>
<path d="M638 163 c34 -2 90 -2 125 0 34 2 6 3 -63 3 -69 0 -97 -1 -62 -3z"/>
<path d="M2398 163 c56 -2 148 -2 205 0 56 1 10 3 -103 3 -113 0 -159 -2 -102
-3z"/>
</g>
</svg>
